<svg xmlns="http://www.w3.org/2000/svg" viewBox="0 0 1200 630" role="img" aria-labelledby="title desc">
  <title id="title">Ragmir</title>
  <desc id="desc">Local retrieval with verifiable citations for AI agents.</desc>
  <rect width="1200" height="630" fill="#000000" />
  <g fill="#ffffff" opacity="0.12">
    <circle cx="120" cy="92" r="1.8" />
    <circle cx="180" cy="144" r="1.8" />
    <circle cx="240" cy="92" r="1.8" />
    <circle cx="300" cy="144" r="1.8" />
    <circle cx="360" cy="92" r="1.8" />
    <circle cx="420" cy="144" r="1.8" />
    <circle cx="480" cy="92" r="1.8" />
    <circle cx="540" cy="144" r="1.8" />
    <circle cx="600" cy="92" r="1.8" />
    <circle cx="660" cy="144" r="1.8" />
    <circle cx="720" cy="92" r="1.8" />
    <circle cx="780" cy="144" r="1.8" />
    <circle cx="840" cy="92" r="1.8" />
    <circle cx="900" cy="144" r="1.8" />
    <circle cx="960" cy="92" r="1.8" />
    <circle cx="1020" cy="144" r="1.8" />
    <circle cx="1080" cy="92" r="1.8" />
  </g>
  <text x="92" y="96" fill="#ffffff" font-family="Inter, Arial, sans-serif" font-size="42" font-weight="900">Ragmir</text>
  <text x="92" y="212" fill="#ffffff" font-family="Inter, Arial, sans-serif" font-size="56" font-weight="900">
    <tspan x="92" dy="0">Give your AI agents</tspan>
    <tspan x="92" dy="62">source-backed passages from</tspan>
    <tspan x="92" dy="62">the documents you choose.</tspan>
  </text>
  <text x="96" y="436" fill="#ffffff" font-family="Inter, Arial, sans-serif" font-size="24" font-weight="700">
    <tspan x="96" dy="0">Open-source local retrieval for Node.js.</tspan>
    <tspan x="96" dy="34">Corpus and index stay local. You control what leaves.</tspan>
  </text>
  <rect x="96" y="504" width="210" height="58" rx="29" fill="#8b47ff" />
  <text x="134" y="542" fill="#ffffff" font-family="Inter, Arial, sans-serif" font-size="21" font-weight="800">Install Ragmir</text>
  <rect x="328" y="504" width="192" height="58" rx="29" fill="#000000" stroke="#333333" />
  <text x="363" y="542" fill="#ffffff" font-family="Inter, Arial, sans-serif" font-size="21" font-weight="800">See use cases</text>
  <rect x="680" y="82" width="430" height="468" rx="14" fill="#050505" stroke="#242424" />
  <rect x="680" y="82" width="430" height="50" rx="14" fill="#080808" />
  <circle cx="702" cy="107" r="5" fill="#ef4444" />
  <circle cx="718" cy="107" r="5" fill="#f59e0b" />
  <circle cx="734" cy="107" r="5" fill="#22c55e" />
  <text x="790" y="111" fill="#bdbdbd" font-family="Inter, Arial, sans-serif" font-size="14" font-weight="600">zsh | ~/projects/air-ops-ui</text>
  <text x="996" y="111" fill="#a855f7" font-family="Inter, Arial, sans-serif" font-size="12" font-weight="900">CODEX + MCP</text>
  <text x="728" y="244" fill="#00c16a" font-family="Inter, Arial, sans-serif" font-size="22" font-weight="800">$ rgr setup</text>
  <text x="728" y="286" fill="#00c16a" font-family="Inter, Arial, sans-serif" font-size="22" font-weight="800">$ codex</text>
</svg>
