<svg xmlns="http://www.w3.org/2000/svg" viewBox="0 0 1200 630" role="img" aria-labelledby="title desc">
  <title id="title">Ragmir</title>
  <desc id="desc">Open-source local RAG for confidential documents.</desc>
  <rect width="1200" height="630" fill="#000000" />
  <g fill="#ffffff" opacity="0.18">
    <circle cx="120" cy="90" r="2" />
    <circle cx="180" cy="150" r="2" />
    <circle cx="240" cy="90" r="2" />
    <circle cx="300" cy="150" r="2" />
    <circle cx="360" cy="90" r="2" />
    <circle cx="420" cy="150" r="2" />
    <circle cx="480" cy="90" r="2" />
    <circle cx="540" cy="150" r="2" />
    <circle cx="600" cy="90" r="2" />
    <circle cx="660" cy="150" r="2" />
    <circle cx="720" cy="90" r="2" />
    <circle cx="780" cy="150" r="2" />
    <circle cx="840" cy="90" r="2" />
    <circle cx="900" cy="150" r="2" />
    <circle cx="960" cy="90" r="2" />
    <circle cx="1020" cy="150" r="2" />
  </g>
  <text x="80" y="260" fill="#ffffff" font-family="Inter, Arial, sans-serif" font-size="104" font-weight="900">Ragmir</text>
  <text x="84" y="345" fill="#d4d4d4" font-family="Inter, Arial, sans-serif" font-size="38" font-weight="700">Build from your specs and docs</text>
  <text x="84" y="415" fill="#9ca3af" font-family="Inter, Arial, sans-serif" font-size="28" font-weight="500">Cited context for your AI agents, over MCP. Fewer tokens, all local.</text>
  <rect x="84" y="470" width="420" height="58" rx="29" fill="#ffffff" />
  <text x="118" y="508" fill="#000000" font-family="Inter, Arial, sans-serif" font-size="24" font-weight="800">pnpm exec rgr setup</text>
</svg>
